<?xml version="1.0" standalone="no"?>
<!DOCTYPE svg PUBLIC "-//W3C//DTD SVG 20010904//EN" "http://www.w3.org/TR/2001/REC-SVG-20010904/DTD/svg10.dtd">
<svg version="1.0" xmlns="http://www.w3.org/2000/svg" width="256.000000pt" height="256.000000pt"
  viewBox="0 0 256.000000 256.000000" preserveAspectRatio="xMidYMid meet">

  <g transform="translate(0.000000,256.000000) scale(0.100000,-0.100000)" fill="#7d66d9" stroke="none">
    <path d="M1181 2385 c-96 -31 -154 -133 -130 -231 17 -68 68 -120 135 -140 49
-14 59 -14 107 0 65 19 113 66 132 130 45 149 -96 288 -244 241z" />
    <path d="M610 2073 c-39 -12 -63 -30 -76 -55 -15 -30 -56 -360 -47 -387 12
-40 29 -64 54 -76 27 -15 157 -40 164 -33 3 3 18 95 34 205 28 196 42 245 83
290 l20 21 -54 11 c-29 6 -71 13 -93 17 -22 3 -47 7 -55 9 -8 2 -22 1 -30 -2z" />
    <path d="M953 1960 c-18 -10 -39 -29 -47 -42 -9 -14 -30 -130 -53 -283 l-37
-260 20 -40 c18 -36 37 -49 191 -130 l171 -90 4 -172 c3 -162 4 -174 25 -194
29 -29 77 -29 106 0 21 20 22 31 25 219 2 145 -1 204 -11 222 -7 15 -45 43
-95 69 -50 27 -82 50 -82 60 0 18 61 405 64 408 2 2 31 -9 66 -23 60 -24 69
-25 236 -22 163 3 175 4 195 25 29 29 29 77 0 106 -20 21 -33 22 -204 28
l-182 5 -145 67 c-157 72 -195 79 -247 47z" />
    <path d="M1649 1581 c-21 -17 -25 -41 -65 -372 -27 -230 -39 -360 -33 -371 5
-10 19 -22 30 -28 26 -14 66 10 74 43 2 12 20 161 40 332 19 171 37 323 40
338 3 21 -2 35 -20 53 -29 29 -36 30 -66 5z" />
    <path d="M2305 1175 c-27 -7 -94 -23 -148 -36 l-99 -22 -126 -157 -127 -158
-172 -81 -173 -81 -171 0 -171 0 -89 -40 -89 -40 -214 0 -215 0 -175 -81 -176
-82 0 -118 0 -119 1120 0 1120 0 0 266 0 266 -47 -28 c-27 -15 -61 -36 -78
-46 -22 -13 -50 -18 -110 -18 l-80 0 -80 -80 c-85 -85 -116 -98 -148 -62 -34
38 -22 63 81 165 l97 97 82 0 c81 0 81 0 180 58 l98 59 3 176 2 177 -22 -1
c-13 0 -45 -7 -73 -14z" />
    <path d="M912 1008 l-23 -93 -84 -86 c-55 -56 -85 -94 -85 -108 0 -28 52 -81
79 -81 20 0 188 147 220 192 12 17 64 199 58 204 -9 7 -128 64 -135 64 -4 0
-18 -42 -30 -92z" />
  </g>
</svg>
